# xmcd
#
# Track frame offsets:
#	150
#	19118
#	36502
#	52072
#	68211
#	87245
#	106217
#	120259
#	138678
#	154095
#	168189
#	189412
#
# Disc length: 2777 seconds
#
# Revision: 0
# Processed by: cddbd v1.4PL0 Copyright (c) Steve Scherf et al.
# Submitted via: dBpowerAMP V4.0
#
DISCID=9e0ad70c
DTITLE=Ann Armstrong - Luck Charm
DYEAR=1900
DGENRE=
TTITLE0=Pride Goes Before A Fall
TTITLE1=Lucky Charm
TTITLE2=Time
TTITLE3=Too Far To Fall
TTITLE4=If I Had Possession
TTITLE5=Out On This Road Tonight
TTITLE6=Driving It Out
TTITLE7=Free
TTITLE8=Size 8 Casket
TTITLE9=You Masquerade As A Cowboy
TTITLE10=One Thing I Know
TTITLE11=Jack Of Diamonds
EXTD=
EXTT0=
EXTT1=
EXTT2=
EXTT3=
EXTT4=
EXTT5=
EXTT6=
EXTT7=
EXTT8=
EXTT9=
EXTT10=
EXTT11=
PLAYORDER=
